<?xml version="1.0" ?><svg height="" id="svg8" version="1.1" viewBox="0 0 33.866666 33.866668" width="" xmlns="http://www.w3.org/2000/svg" xmlns:cc="http://creativecommons.org/ns#" xmlns:dc="http://purl.org/dc/elements/1.1/" xmlns:inkscape="http://www.inkscape.org/namespaces/inkscape" xmlns:rdf="http://www.w3.org/1999/02/22-rdf-syntax-ns#" xmlns:sodipodi="http://sodipodi.sourceforge.net/DTD/sodipodi-0.dtd" xmlns:svg="http://www.w3.org/2000/svg" xmlns:xlink="http://www.w3.org/1999/xlink"><defs id="defs2"><linearGradient id="linearGradient2202"><stop id="stop2198" offset="0" style="stop-color:#f6f600;stop-opacity:1;"/><stop id="stop2200" offset="1" style="stop-color:#f69134;stop-opacity:1"/></linearGradient><linearGradient gradientTransform="matrix(0.39352029,0,0,0.39352035,-185.27183,93.82285)" gradientUnits="userSpaceOnUse" id="linearGradient3363" x1="12.262755" x2="12.262755" xlink:href="#linearGradient2202" y1="9.0164375" y2="14.680936"/><clipPath clipPathUnits="userSpaceOnUse" id="clipPath3457"><rect height="58.93293" id="rect3459" rx="2.6458333" ry="2.6458333" style="fill:#1a1a1a;stroke-width:0.264583;stroke-linecap:square;stroke-dasharray:0.264583, 1.05833;paint-order:fill markers stroke" width="61.739258" x="-262.11121" y="114.49826"/></clipPath><clipPath clipPathUnits="userSpaceOnUse" id="clipPath3791"><ellipse cx="-93.170158" cy="29.747097" id="ellipse3793" rx="45.275459" ry="42.469128" style="fill:#f979e8;fill-opacity:1;stroke:#000080;stroke-width:2.64583;stroke-linecap:round;stroke-linejoin:round;stroke-miterlimit:4;stroke-dasharray:none;stroke-dashoffset:0;paint-order:fill markers stroke"/></clipPath><clipPath clipPathUnits="userSpaceOnUse" id="clipPath71886"><rect height="171.67012" id="rect71888" rx="2.3812499" ry="2.3812499" style="fill:none;stroke:#1e9a4a;stroke-width:0.264583;stroke-linecap:round;stroke-linejoin:round;stroke-miterlimit:4;stroke-dasharray:0.264583, 1.05833;stroke-dashoffset:0;stroke-opacity:1;paint-order:fill markers stroke" width="182.57619" x="-482.60001" y="-9.5249996"/></clipPath><clipPath clipPathUnits="userSpaceOnUse" id="clipPath71892"><rect height="131.23334" id="rect71894" rx="2.3812499" ry="2.3812499" style="fill:none;stroke:#1e9a4a;stroke-width:0.264583;stroke-linecap:round;stroke-linejoin:round;stroke-miterlimit:4;stroke-dasharray:0.264583, 1.05833;stroke-dashoffset:0;stroke-opacity:1;paint-order:fill markers stroke" width="184.14999" x="-225.425" y="-33.866665"/></clipPath><clipPath clipPathUnits="userSpaceOnUse" id="clipPath73580"><rect height="93.170158" id="rect73582" rx="2.3812499" ry="2.3812499" style="fill:none;stroke:#007cdc;stroke-width:0.264999;stroke-linecap:square;stroke-dasharray:0.264999, 1.06;paint-order:fill markers stroke" width="142.18739" x="-186.71449" y="28.063299"/></clipPath></defs><g id="layer1"><path d="m 27.497664,7.3000558 c -0.86566,0 -1.594217,0.1742093 -1.950494,1.410702 -0.475037,1.6486572 -2.545461,5.2743062 -3.719085,7.0906222 -0.835447,1.292957 -1.942804,0.393466 -2.0093,-0.160674 -0.16766,-1.397167 0,-6.7343448 0,-6.7343448 0,-1.0511046 -0.650541,-1.5927703 -1.369224,-1.5927703 h -5.369599 c -0.879848,0 -1.322489,1.0689312 -0.06069,1.8494998 1.094172,0.676869 1.388435,0.7179473 1.388435,1.6713603 v 6.036514 c 0,0.515999 -0.777587,1.095598 -1.42511,0.433121 -0.968894,-0.991267 -4.3032765,-8.006518 -4.3032765,-8.006518 0,0 -0.8799312,-1.9839771 -3.2265815,-1.9839771 H 1.777756 c -0.406285,0 -0.95474787,0.5270552 -0.6186834,1.1823525 0,0 3.9993892,9.6596626 7.6599661,13.6276166 3.6605773,3.967954 6.7064013,4.442992 6.7064013,4.442992 h 3.231499 c 0,0 1.131705,0.02794 1.131705,-1.131706 V 22.12356 c -0.04935,-0.789774 1.014274,-1.386964 1.939441,-0.383347 l 3.409527,3.698563 c 0.841878,0.883963 1.820108,1.127776 2.760275,1.127776 h 4.041385 c 0.622323,0 1.242213,-0.796777 0.234463,-1.804529 l -4.901,-5.600457 c 0,0 -0.782414,-0.698583 -0.111774,-1.76043 0.670639,-1.061847 4.05841,-7.6564744 4.22607,-8.103568 0.451826,-0.9488064 0.138655,-1.9839771 -0.985439,-1.9839771 0,0 -2.860266,-0.013536 -3.003928,-0.013535 z" id="path73586" style="fill:#000000;fill-opacity:1;stroke:none;stroke-width:0.223898;stroke-linecap:square;stroke-dasharray:0.223898, 0.89559500000000003;paint-order:fill markers stroke"/></g></svg>